<svg xmlns="http://www.w3.org/2000/svg" id="Layer_1" data-name="Layer 1" viewBox="0 0 388.94 104.28"><defs><style>      .cls-1 {        fill-rule: evenodd;      }      .cls-1, .cls-2 {        fill: #00adbb;      }    </style></defs><g><path class="cls-1" d="M86.64,103.04v-35.48c4.21.08,15.74,2.63,17.68,2.78,4.43.34,7.88-1.03,10.86-4.24,8.4-7.72,13.54-17.18,15.31-27.53,1.08-6.36.55-12.96-2.4-18.7-3.04-5.93-7.93-10.99-13.45-15.08-3.64-2.45-7.13-3.88-10.32-3.5-1.57.2-3.09.86-4.51,2.06-4.3,3.38-8.89,6.76-13.18,10.14V1.24c-3.87,3.91-10.84,7.71-14.87,8.68v88.1s14.88,5.02,14.88,5.02ZM107.76,57.53c-.77-.08-21.13-1.51-21.13-1.64,0,0,0-35.96,0-35.96,5.06-4.93,11.53-4.65,17.68-1.67,5.33,2.56,10.39,7.13,14.08,12.07,1.5,2.01,2.62,4.32,3.09,6.78.89,4.66.64,9.45-.68,14.38-.4,1.5-1.22,2.82-2.36,3.87-3.04,2.79-6.9,2.58-10.69,2.17Z"></path><g><path class="cls-1" d="M62.12,71.88l-.04-67.42c-6.23,2.77-16.15,4.44-27.42-1.69-1.49-.81-3.11-1.34-4.79-1.41,0,0-.01,0-.02,0-2.59-.11-5.14.63-7.32,2.06C11.99,10.33,4.61,19.01,1.91,31.67c-.93,4.36-1.21,8.9-.35,13.28.9,4.58,2.88,8.87,5.53,12.66,2.7,3.87,6.15,7.59,9.88,10.43.12.09.25.19.38.28,1.6,1.15,3.62,2.26,5.62,2.1,2.33-.19,4.42-1.14,6.42-2.35,2.77-1.68,5.48-3.64,8.17-5.51,1.37-.95,2.75-1.91,4.17-2.78,1.17-.72,2.68-1.62,4.1-1.13,1.29.44,1.62,2,1.74,3.23v5.37l14.58,4.64ZM47.45,49.3c-.03.11-.07.22-.12.33-.19.39-.52.68-.84.97-3.38,2.94-7.08,6.02-11.51,6.31-2.49.16-4.97-.61-7.17-1.81-2.2-1.2-4.15-2.83-6.04-4.5-3.02-2.66-5.99-5.53-7.88-9.12-1.97-3.73-2.63-8.02-2.65-12.22-.02-4.18.34-8.68,2.42-12.37,1.16-2.05,2.98-3.8,5.23-4.39,1.83-.48,3.77-.16,5.61.28,7.72,1.85,15.12,5.88,23.05,5.61,0,9.94,0,19.89,0,29.83,0,.37,0,.74-.09,1.09Z"></path><path class="cls-1" d="M256.58,71.79l-.04-67.42c-6.23,2.77-16.15,4.44-27.42-1.69-1.49-.81-3.11-1.34-4.79-1.41,0,0-.01,0-.02,0-2.59-.11-5.14.63-7.32,2.06-10.55,6.91-17.92,15.58-20.63,28.25-.93,4.36-1.21,8.9-.35,13.28.9,4.58,2.88,8.87,5.53,12.66,2.7,3.87,6.15,7.59,9.88,10.43.12.09.25.19.38.28,1.6,1.15,3.62,2.26,5.62,2.1,2.33-.19,4.42-1.14,6.42-2.35,2.77-1.68,5.48-3.64,8.17-5.51,1.37-.95,2.75-1.91,4.17-2.78,1.17-.72,2.68-1.62,4.1-1.13,1.29.44,1.62,2,1.74,3.23v5.37l14.58,4.64ZM241.91,49.2c-.03.11-.07.22-.12.33-.19.39-.52.68-.84.97-3.38,2.94-7.08,6.02-11.51,6.31-2.49.16-4.97-.61-7.17-1.81-2.2-1.2-4.15-2.83-6.04-4.5-3.02-2.66-5.99-5.53-7.88-9.12-1.97-3.73-2.63-8.02-2.65-12.22-.02-4.18.34-8.68,2.42-12.37,1.16-2.05,2.98-3.8,5.23-4.39,1.83-.48,3.77-.16,5.61.28,7.72,1.85,15.12,5.88,23.05,5.61,0,9.94,0,19.89,0,29.83,0,.37,0,.74-.09,1.09Z"></path><path class="cls-1" d="M367.54,71.88l-.04-67.42c-6.23,2.77-16.15,4.44-27.42-1.69-1.49-.81-3.11-1.34-4.79-1.41,0,0-.01,0-.02,0-2.59-.11-5.14.63-7.32,2.06-10.55,6.91-17.92,15.58-20.63,28.25-.93,4.36-1.21,8.9-.35,13.28.9,4.58,2.88,8.87,5.53,12.66,2.7,3.87,6.15,7.59,9.88,10.43.12.09.25.19.38.28,1.6,1.15,3.62,2.26,5.62,2.1,2.33-.19,4.42-1.14,6.42-2.35,2.77-1.68,5.48-3.64,8.17-5.51,1.37-.95,2.75-1.91,4.17-2.78,1.17-.72,2.68-1.62,4.1-1.13,1.29.44,1.62,2,1.74,3.23v5.37l14.58,4.64ZM352.87,49.3c-.03.11-.07.22-.12.33-.19.39-.52.68-.84.97-3.38,2.94-7.08,6.02-11.51,6.31-2.49.16-4.97-.61-7.17-1.81-2.2-1.2-4.15-2.83-6.04-4.5-3.02-2.66-5.99-5.53-7.88-9.12-1.97-3.73-2.63-8.02-2.65-12.22-.02-4.18.34-8.68,2.42-12.37,1.16-2.05,2.98-3.8,5.23-4.39,1.83-.48,3.77-.16,5.61.28,7.72,1.85,15.12,5.88,23.05,5.61,0,9.94,0,19.89,0,29.83,0,.37,0,.74-.09,1.09Z"></path><path class="cls-1" d="M188.25,2.32c-5.42,2.78-11.53,2.95-16.94,1.08-9.93-3.99-19.18-1.68-23.38.81-5.82,3.89-10.64,9.16-12.19,17.18-1.28,6.67.3,13.74,5.07,18.58,1.78,1.8,3.79,3.27,5.79,4.5,2.63,1.13,4.44.64,7.29-1.67,3.1-2.61,7.29-3.74,11.28-3.81,3.87-.08,6.99.83,9.86,3.47,2.94,2.7,5.14,6.1,5.72,10.07.36,2.47.47,5.51-.82,7.75-1.18,2.06-3.46,2.08-5.46,1.3-3.2-1.26-6.1-3.17-9.28-4.49-3.23-1.34-6.61-2.39-10.13-2.51-3.13-.11-6.28.68-8.95,2.32-4.61,2.81-7.11,7.03-9.33,11.46,0,0-1.3,2.6-1.48,3.12,0,0,5.23-4.92,14.4-3.23,8.49,1.57,12.95,5.03,21.6,2.38,4.94-1.52,8.13-3.53,10.97-6.52,3.9-4.13,6.45-9.41,7.02-15.07.51-5.04-.55-9.13-2.71-12.6-.92-1.47-2.13-2.73-3.36-3.94-1.5-1.48-2.88-3.18-4.56-4.46-1.67-1.27-3.6-.79-5.17.39-6.83,5.41-16.87,7.41-23.54,1.85-5.07-4.62-6.11-10.73-5.02-17.16.54-3.2,3.92-3.64,6.41-2.29,1.63.88,2.95,2.3,4.55,3.27,5.91,3.55,13.22,4.88,19.9,2.92,2.24-.66,4.28-1.88,5.92-3.54,2.92-2.97,5.07-6.76,6.53-11.17"></path><path class="cls-1" d="M313.75,2.31c-4.62,11.91-14.89,16.59-23.71,16.74-3.96-.39-7.66-2.46-9.38-.86v53.7l-14.87-4.64V10.12c3.94-1.12,10.23-3.47,14.86-8.86v8.27c1.43.68,6.75-2.8,9.4-5.48,2.47-2.77,4.85.14,7.51.89,0,0,7.48,2.98,16.2-2.63"></path></g></g><g><path class="cls-2" d="M374.47,12.59v-7.18h-2.86v-.96h6.87v.96h-2.87v7.18h-1.15Z"></path><path class="cls-2" d="M379.62,12.59V4.45h1.73l2.05,5.77c.19.54.33.94.41,1.21.1-.3.25-.73.46-1.31l2.08-5.67h1.54v8.14h-1.11v-6.82l-2.52,6.82h-1.04l-2.51-6.93v6.93h-1.11Z"></path></g></svg>