<svg xmlns="http://www.w3.org/2000/svg" id="Layer_1" data-name="Layer 1" viewBox="19.08 2.5 111.84 59.99">
  <defs>
    <style>
      .cls-1 {
        fill: #1a1a18;
      }

      .cls-2 {
        fill: #1a3d7c;
      }

      .cls-3 {
        fill: #717277;
      }
    </style>
  </defs>
  <rect class="cls-3" x="58.2" y="2.5" width="1.48" height="46.79"/>
  <rect class="cls-3" x="90.3" y="2.5" width="1.48" height="46.79"/>
  <path class="cls-2" d="M56.34,23.22h-11.96v-4.8c0-1.67-.14-2.8-.41-3.4-.28-.6-.77-.9-1.51-.9s-1.22.27-1.47.79c-.26.52-.39,1.69-.39,3.51v19.63c0,1.48.19,2.59.57,3.34.37.74.93,1.11,1.66,1.11.86,0,1.45-.39,1.75-1.17.3-.77.45-2.24.45-4.39v-4.96h11.31c-.02,3.33-.14,5.82-.36,7.48-.21,1.66-.91,3.37-2.1,5.12-1.18,1.74-2.72,3.06-4.63,3.95-1.91.89-4.26,1.33-7.06,1.33-3.58,0-6.42-.61-8.51-1.83-2.09-1.22-3.58-2.93-4.45-5.15-.87-2.2-1.3-5.33-1.3-9.39v-11.82c0-3.54.35-6.21,1.06-8.01.72-1.8,2.23-3.39,4.56-4.81,2.33-1.41,5.16-2.12,8.48-2.12s6.13.7,8.48,2.1c2.35,1.4,3.9,3.17,4.68,5.3.77,2.14,1.16,5.16,1.16,9.07"/>
  <path class="cls-3" d="M88.11,20.8h-11.25v-2.25c0-1.93-.11-3.15-.33-3.66-.21-.51-.76-.77-1.64-.77-.72,0-1.25.24-1.61.71-.35.47-.54,1.18-.54,2.12,0,1.27.1,2.22.27,2.8.18.6.72,1.25,1.61,1.96.89.72,2.71,1.76,5.48,3.1,3.69,1.8,6.1,3.5,7.26,5.08,1.15,1.59,1.73,3.9,1.73,6.94,0,3.38-.44,5.94-1.32,7.66-.88,1.72-2.36,3.05-4.42,3.98-2.06.93-4.55,1.39-7.46,1.39-3.22,0-5.98-.5-8.28-1.5-2.29-1.01-3.87-2.37-4.73-4.08-.86-1.71-1.29-4.31-1.29-7.78v-2h11.25v2.63c0,2.24.14,3.69.43,4.36.28.67.84,1.01,1.67,1.01.9,0,1.53-.22,1.89-.67.35-.45.54-1.4.54-2.84,0-1.99-.23-3.23-.69-3.74-.48-.5-2.95-1.98-7.39-4.45-3.73-2.09-6-3.98-6.82-5.69-.81-1.7-1.22-3.72-1.22-6.07,0-3.32.44-5.77,1.32-7.35.88-1.57,2.37-2.79,4.48-3.65,2.1-.86,4.55-1.28,7.33-1.28s5.11.35,7.04,1.05c1.94.71,3.43,1.63,4.46,2.77,1.04,1.16,1.67,2.22,1.89,3.2.23.98.33,2.53.33,4.61v2.41Z"/>
  <path class="cls-2" d="M122.08,23.22h-11.96v-4.8c0-1.67-.14-2.8-.41-3.4-.28-.6-.77-.9-1.51-.9s-1.22.27-1.47.79c-.26.52-.39,1.69-.39,3.51v19.63c0,1.48.19,2.59.57,3.34.37.74.93,1.11,1.66,1.11.86,0,1.45-.39,1.75-1.17.3-.77.45-2.24.45-4.39v-4.96h11.31c-.02,3.33-.14,5.82-.36,7.48-.21,1.66-.91,3.37-2.1,5.12-1.18,1.74-2.72,3.06-4.63,3.95-1.91.89-4.26,1.33-7.06,1.33-3.58,0-6.42-.61-8.51-1.83-2.09-1.22-3.58-2.93-4.45-5.15-.87-2.2-1.3-5.33-1.3-9.39v-11.82c0-3.54.35-6.21,1.06-8.01.72-1.8,2.23-3.39,4.56-4.81,2.33-1.41,5.16-2.12,8.48-2.12s6.13.7,8.48,2.1c2.35,1.4,3.9,3.17,4.68,5.3.77,2.14,1.16,5.16,1.16,9.07"/>
  <path class="cls-1" d="M130.91,60.93h-1.24l-1.07-1.66h-.01v1.66h-1.03v-4.96h1.03v3.16h.01l1-1.55h1.23l-1.2,1.57,1.29,1.78ZM124.39,60.84v-.84c.17.1.34.18.51.23.17.05.33.08.48.08.18,0,.33-.02.43-.08.1-.05.16-.13.16-.23,0-.07-.02-.12-.07-.17-.05-.04-.11-.08-.18-.11-.08-.03-.16-.06-.25-.09-.09-.02-.18-.06-.26-.09-.13-.05-.25-.1-.35-.16-.1-.06-.19-.12-.25-.2-.07-.08-.12-.17-.16-.27-.04-.1-.06-.22-.06-.36,0-.19.04-.35.12-.49.08-.13.19-.25.33-.33.13-.09.29-.15.47-.19.18-.04.36-.06.55-.06.15,0,.3.01.45.03.15.02.3.06.45.1v.8c-.13-.08-.27-.13-.42-.17-.15-.04-.3-.06-.44-.06-.07,0-.13,0-.19.02-.06.01-.11.03-.16.05-.05.02-.08.05-.11.09-.03.04-.04.08-.04.12,0,.06.02.11.06.16.04.04.09.08.15.11.06.03.13.06.21.08.08.02.15.05.23.08.14.05.26.1.37.16.11.06.21.12.29.2.08.08.14.17.18.27.04.1.06.22.06.37,0,.2-.04.37-.13.51-.09.14-.2.25-.34.34-.14.09-.31.15-.49.19-.19.04-.38.06-.58.06-.37,0-.71-.06-1.02-.17ZM122.13,58.29c-.24,0-.43.08-.57.25-.13.17-.2.41-.2.71,0,.64.26.96.78.96s.74-.33.74-.99c0-.62-.25-.94-.75-.94ZM122.11,61.01c-.56,0-1-.16-1.32-.47-.32-.31-.48-.74-.48-1.27s.17-.99.5-1.3c.33-.31.78-.47,1.34-.47s.99.16,1.31.47c.32.31.47.73.47,1.24,0,.56-.16,1-.49,1.32-.33.32-.77.48-1.34.48ZM119.64,60.93h-1.03v-3.35h1.03v3.35ZM119.13,57.05c-.17,0-.32-.05-.43-.16-.11-.1-.17-.23-.17-.38s.06-.28.17-.38c.11-.1.25-.15.43-.15s.32.05.43.15c.11.1.17.23.17.38s-.06.28-.17.39-.25.15-.43.15ZM118.26,60.93h-1.33l-1.37-2.04s-.07-.13-.13-.26h-.02v2.3h-1.06v-4.69h1.06v2.22h.02c.03-.06.07-.15.13-.26l1.3-1.96h1.26l-1.64,2.24,1.78,2.45ZM110.53,59.3v-.25c0-.22-.06-.4-.19-.54-.13-.14-.29-.21-.49-.21-.23,0-.41.09-.54.27-.13.18-.19.43-.19.74,0,.29.06.52.19.68.12.16.3.24.52.24s.38-.08.51-.25c.13-.17.2-.39.2-.67ZM111.54,60.93h-1.03v-.46h-.01c-.24.36-.58.54-1.04.54-.42,0-.76-.15-1.01-.44-.26-.29-.38-.71-.38-1.24s.14-1,.42-1.33c.28-.33.65-.5,1.11-.5s.73.16.9.47h.01v-1.99h1.03v4.96ZM105.79,58.29c-.24,0-.43.08-.57.25-.13.17-.2.41-.2.71,0,.64.26.96.78.96s.74-.33.74-.99c0-.62-.25-.94-.75-.94ZM105.77,61.01c-.56,0-1-.16-1.32-.47-.32-.31-.48-.74-.48-1.27s.17-.99.5-1.3c.33-.31.78-.47,1.34-.47s.99.16,1.31.47c.32.31.47.73.47,1.24,0,.56-.16,1-.49,1.32-.33.32-.77.48-1.34.48ZM101.7,58.29c-.24,0-.43.08-.57.25-.13.17-.2.41-.2.71,0,.64.26.96.78.96s.74-.33.74-.99c0-.62-.25-.94-.75-.94ZM101.67,61.01c-.56,0-1-.16-1.32-.47-.32-.31-.48-.74-.48-1.27s.17-.99.5-1.3c.33-.31.78-.47,1.34-.47s.99.16,1.31.47c.32.31.47.73.47,1.24,0,.56-.16,1-.49,1.32-.33.32-.77.48-1.34.48ZM99.26,60.93h-1.03v-1.9c0-.49-.18-.73-.54-.73-.18,0-.33.07-.44.21-.11.14-.17.31-.17.52v1.91h-1.03v-4.96h1.03v2.11h.01c.25-.39.6-.58,1.03-.58.76,0,1.14.46,1.14,1.37v2.06ZM95.56,58.51c-.12-.07-.27-.1-.43-.1-.23,0-.4.08-.53.25-.13.17-.19.39-.19.67v1.6h-1.03v-3.35h1.03v.62h.01c.17-.45.46-.68.88-.68.11,0,.2.01.26.04v.95ZM92.5,60.93h-1.03v-.51h-.02c-.26.39-.6.59-1.02.59-.78,0-1.16-.47-1.16-1.41v-2.02h1.03v1.93c0,.47.19.71.56.71.19,0,.33-.06.45-.2.11-.13.17-.3.17-.53v-1.92h1.03v3.35ZM86.85,58.29c-.24,0-.43.08-.57.25-.13.17-.2.41-.2.71,0,.64.26.96.78.96s.74-.33.74-.99c0-.62-.25-.94-.75-.94ZM86.82,61.01c-.56,0-1-.16-1.32-.47-.32-.31-.48-.74-.48-1.27s.17-.99.5-1.3c.33-.31.78-.47,1.34-.47s.99.16,1.31.47c.32.31.47.73.47,1.24,0,.56-.16,1-.49,1.32-.33.32-.77.48-1.34.48ZM82.09,59.12v.34c0,.21.06.39.19.54.12.14.28.21.48.21.24,0,.42-.09.55-.27.13-.18.19-.44.19-.77,0-.28-.06-.49-.18-.65-.12-.16-.29-.23-.51-.23-.21,0-.38.08-.51.23-.14.16-.21.36-.21.61ZM82.12,60.54h-.01v.39h-1.03v-4.96h1.03v2.11h.01c.26-.39.62-.58,1.09-.58.43,0,.77.15,1,.44.23.3.35.7.35,1.22,0,.56-.14,1.01-.41,1.34-.27.34-.64.51-1.09.51-.41,0-.73-.16-.94-.47ZM80.25,60.93h-1.03v-1.9c0-.49-.18-.73-.54-.73-.18,0-.33.07-.44.21-.11.14-.17.31-.17.52v1.91h-1.03v-4.96h1.03v2.11h.01c.25-.39.6-.58,1.03-.58.76,0,1.14.46,1.14,1.37v2.06ZM75.15,59.32v-.27c0-.21-.06-.39-.19-.54-.13-.15-.29-.22-.49-.22-.23,0-.41.09-.54.27-.13.18-.2.43-.2.76,0,.28.06.5.19.66.12.16.29.24.51.24s.39-.08.52-.25c.13-.17.2-.38.2-.65ZM76.18,60.54c0,.62-.18,1.1-.54,1.44-.36.34-.88.51-1.56.51-.45,0-.81-.06-1.07-.19v-.87c.34.2.69.3,1.04.3s.62-.09.81-.28c.19-.18.29-.43.29-.75v-.26h-.01c-.24.37-.58.56-1.04.56-.43,0-.77-.15-1.02-.45-.25-.3-.38-.7-.38-1.21,0-.57.14-1.02.42-1.35.28-.33.65-.5,1.1-.5.41,0,.71.16.92.47h.01v-.39h1.03v2.97ZM72.02,60.93h-1.03v-3.35h1.03v3.35ZM71.51,57.05c-.17,0-.32-.05-.43-.16-.11-.1-.17-.23-.17-.38s.06-.28.17-.38c.11-.1.25-.15.43-.15s.32.05.43.15c.11.1.17.23.17.38s-.06.28-.17.39c-.11.1-.25.15-.43.15ZM69.41,58.91c0-.48-.19-.72-.58-.72-.17,0-.31.07-.43.21-.12.14-.2.31-.22.51h1.23ZM70.37,59.55h-2.19c.04.49.34.73.92.73.37,0,.69-.09.97-.26v.75c-.31.17-.71.25-1.21.25-.54,0-.96-.15-1.26-.45-.3-.3-.45-.72-.45-1.25s.16-1,.48-1.32c.32-.32.72-.49,1.19-.49s.87.14,1.13.43c.27.29.4.68.4,1.18v.43ZM66.39,60.93h-1.07l-1.93-2.95c-.11-.17-.19-.3-.24-.39h-.01c.02.17.03.42.03.76v2.58h-1v-4.69h1.14l1.86,2.86c.09.13.16.25.24.38h.01c-.02-.11-.03-.32-.03-.64v-2.59h1v4.69ZM58.34,59.3v-.25c0-.22-.06-.4-.19-.54-.13-.14-.29-.21-.49-.21-.23,0-.41.09-.54.27-.13.18-.19.43-.19.74,0,.29.06.52.19.68.12.16.3.24.52.24s.38-.08.51-.25c.13-.17.2-.39.2-.67ZM59.35,60.93h-1.03v-.46h-.01c-.24.36-.58.54-1.04.54-.42,0-.76-.15-1.01-.44-.26-.29-.38-.71-.38-1.24s.14-1,.42-1.33c.28-.33.65-.5,1.11-.5s.73.16.9.47h.01v-1.99h1.03v4.96ZM54.5,58.91c0-.48-.19-.72-.58-.72-.17,0-.31.07-.43.21-.12.14-.2.31-.22.51h1.23ZM55.46,59.55h-2.19c.04.49.34.73.92.73.37,0,.69-.09.97-.26v.75c-.31.17-.71.25-1.21.25-.54,0-.96-.15-1.26-.45-.3-.3-.45-.72-.45-1.25s.16-1,.48-1.32c.32-.32.72-.49,1.19-.49s.87.14,1.13.43c.27.29.4.68.4,1.18v.43ZM51.87,60.89c-.15.08-.38.12-.69.12-.73,0-1.09-.38-1.09-1.14v-1.53h-.54v-.76h.54v-.72l1.03-.29v1.02h.75v.76h-.75v1.36c0,.35.14.52.42.52.11,0,.22-.03.34-.09v.77ZM46.68,60.84v-.84c.17.1.34.18.51.23.17.05.33.08.48.08.18,0,.33-.02.43-.08.1-.05.16-.13.16-.23,0-.07-.02-.12-.07-.17-.05-.04-.11-.08-.18-.11-.08-.03-.16-.06-.25-.09-.09-.02-.18-.06-.26-.09-.13-.05-.25-.1-.35-.16-.1-.06-.19-.12-.25-.2-.07-.08-.12-.17-.16-.27-.04-.1-.06-.22-.06-.36,0-.19.04-.35.12-.49.08-.13.19-.25.33-.33.13-.09.29-.15.47-.19.18-.04.36-.06.55-.06.15,0,.3.01.45.03.15.02.3.06.45.1v.8c-.13-.08-.27-.13-.42-.17-.15-.04-.3-.06-.44-.06-.07,0-.13,0-.19.02-.06.01-.11.03-.16.05-.05.02-.08.05-.11.09-.03.04-.04.08-.04.12,0,.06.02.11.06.16.04.04.09.08.15.11.06.03.13.06.21.08.08.02.15.05.23.08.14.05.26.1.37.16.11.06.21.12.29.2.08.08.14.17.18.27.04.1.06.22.06.37,0,.2-.04.37-.13.51-.09.14-.2.25-.34.34-.14.09-.31.15-.49.19-.19.04-.38.06-.58.06-.37,0-.71-.06-1.02-.17ZM46.03,60.93h-1.03v-.51h-.02c-.26.39-.6.59-1.02.59-.78,0-1.16-.47-1.16-1.41v-2.02h1.03v1.93c0,.47.19.71.56.71.19,0,.33-.06.45-.2.11-.13.17-.3.17-.53v-1.92h1.03v3.35ZM42.36,58.51c-.12-.07-.27-.1-.43-.1-.23,0-.4.08-.53.25-.13.17-.19.39-.19.67v1.6h-1.03v-3.35h1.03v.62h.01c.17-.45.46-.68.88-.68.11,0,.2.01.26.04v.95ZM39.65,57.1h-1.34v3.83h-1.06v-3.83h-1.33v-.86h3.73v.86ZM33.92,58.51c-.12-.07-.27-.1-.43-.1-.23,0-.4.08-.53.25-.13.17-.19.39-.19.67v1.6h-1.03v-3.35h1.03v.62h.01c.17-.45.46-.68.88-.68.11,0,.2.01.26.04v.95ZM30.87,60.93h-1.03v-.51h-.02c-.26.39-.6.59-1.02.59-.78,0-1.16-.47-1.16-1.41v-2.02h1.03v1.93c0,.47.19.71.56.71.19,0,.33-.06.45-.2.11-.13.17-.3.17-.53v-1.92h1.03v3.35ZM25.21,58.29c-.24,0-.43.08-.57.25-.13.17-.2.41-.2.71,0,.64.26.96.78.96s.74-.33.74-.99c0-.62-.25-.94-.75-.94ZM25.19,61.01c-.56,0-1-.16-1.32-.47-.32-.31-.48-.74-.48-1.27s.17-.99.5-1.3c.33-.31.78-.47,1.34-.47s.99.16,1.31.47c.32.31.47.73.47,1.24,0,.56-.16,1-.49,1.32-.33.32-.77.48-1.34.48ZM23.16,56.24l-1.53,3.02v1.67h-1.06v-1.65l-1.49-3.04h1.21l.76,1.75s.05.16.11.38h.01c.03-.16.06-.28.1-.37l.77-1.76h1.12Z"/>
</svg>