<svg xmlns="http://www.w3.org/2000/svg" id="uuid-acf52e0f-2607-40e5-af7b-fb4bb8d0a37a" data-name="Layer 2" viewBox="0 0 503.88 72.11"><g id="uuid-38fae797-7aca-402d-bb13-50d225042b64" data-name="LOGO"><g><path d="M472.54,55.91c-.51,2.77-1.66,5.35-3.47,7.76-1.81,2.4-4.43,4.41-7.82,6.02-3.4,1.61-7.99,2.42-13.77,2.42-3.24,0-6.4-.41-9.44-1.24-3.04-.82-5.75-2.1-8.14-3.85-2.37-1.74-4.29-3.98-5.74-6.72-1.45-2.73-2.17-6.04-2.17-9.93v-4.47s0-1.65,1.65-1.65h13.75v3.16c0,1.71.15,3.29.44,4.74.28,1.44.79,2.68,1.52,3.7.74,1.03,1.7,1.83,2.97,2.43,1.27.59,2.92.88,4.94.88,2.23,0,3.99-.35,5.21-1.08,1.22-.72,2.11-1.66,2.66-2.82.54-1.15.86-2.4.97-3.75.12-1.35.17-2.64.17-3.91V1.65s0-1.65,1.64-1.65h13.74s1.64,0,1.64,1.65v46.65c0,2.3-.25,4.84-.75,7.6M390.6,0s1.66,0,2.28,1.53l27.71,67.48s.64,1.52-1.02,1.52h-14.39s-1.64,0-2.21-1.55l-4.73-12.62s-.56-1.54-2.22-1.54h-25.67s-1.64,0-2.25,1.54l-4.87,12.64s-.6,1.54-2.25,1.54h-13.85s-1.63,0-1.01-1.52L374.14,1.52s.63-1.52,2.29-1.52h14.17ZM391.59,43.27s1.63,0,1.06-1.54l-9.19-24.34h-.11s-.12,0-.7,1.54l-8.9,22.82s-.59,1.54,1.05,1.54h16.79ZM317.06,0c3.48,0,6.6.51,9.4,1.54,2.78,1.01,5.16,2.41,7.16,4.19,1.98,1.78,3.5,3.84,4.55,6.18,1.06,2.34,1.57,4.86,1.57,7.55,0,4.16-.96,7.74-2.87,10.78-1.92,3.02-5.06,5.33-9.38,6.91v.1s0,.1,1.04.36c1.05.26,2.78,1.07,4.17,2.15,1.36,1.09,2.47,2.37,3.35,3.86.87,1.48,1.51,3.11,1.91,4.89.4,1.78.65,3.55.8,5.34.08,1.12.14,2.44.21,3.96.09,1.51.21,3.06.39,4.64.17,1.58.49,3.08.88,4.49.39,1.4.99,2.61,1.78,3.6h-15.4s-1.63,0-2.11-1.12c-.46-1.11-1.06-3.78-1.26-6.88-.23-3.09-.55-6.05-.98-8.89-.59-3.69-1.82-6.39-3.71-8.09-1.86-1.72-4.94-2.58-9.22-2.58h-15.37s-1.64,0-1.64,1.64v24.28s0,1.64-1.65,1.64h-13.73s-1.66,0-1.66-1.64V1.65s0-1.65,1.66-1.65h40.1ZM311,31.9c3.9,0,6.83-.78,8.77-2.37,1.97-1.58,2.94-4.15,2.94-7.7s-.97-5.91-2.94-7.46c-1.94-1.55-4.87-2.33-8.77-2.33h-17.02s-1.64,0-1.64,1.65v16.56s0,1.64,1.64,1.64h17.02ZM237.97,0s1.64,0,2.26,1.53l27.73,67.48s.62,1.52-1.02,1.52h-14.4s-1.65,0-2.22-1.55l-4.7-12.62s-.59-1.54-2.23-1.54h-25.66s-1.65,0-2.25,1.54l-4.89,12.64s-.58,1.54-2.22,1.54h-13.86s-1.64,0-1.02-1.52L221.53,1.52s.63-1.52,2.27-1.52h14.17ZM238.95,43.27s1.64,0,1.06-1.54l-9.19-24.34h-.11s-.1,0-.7,1.54l-8.9,22.82s-.59,1.54,1.05,1.54h16.78ZM140.26,13.04s-1.65,0-1.65-1.64V1.65s0-1.65,1.65-1.65h60.17s1.66,0,1.66,1.65v9.74s0,1.64-1.66,1.64h-19.91s-1.65,0-1.65,1.65v54.2s0,1.64-1.64,1.64h-13.76s-1.64,0-1.64-1.64V14.69s0-1.65-1.64-1.65h-19.93ZM117.34,0s1.65,0,2.27,1.53l27.7,67.48s.63,1.52-1.01,1.52h-14.39s-1.64,0-2.22-1.55l-4.7-12.62s-.58-1.54-2.22-1.54h-25.68s-1.63,0-2.22,1.54l-4.9,12.64s-.6,1.54-2.25,1.54h-13.85s-1.63,0-1.01-1.52L100.9,1.52s.63-1.52,2.28-1.52h14.16ZM118.31,43.27s1.66,0,1.05-1.54l-8.79-22.82s-.58-1.54-1.18,0l-8.89,22.82s-.6,1.54,1.04,1.54h16.77ZM15.26,0s1.67,0,2.58,1.36l31.41,45.95h.1s.13,0,.13-1.65V1.65s0-1.65,1.64-1.65h12.65s1.64,0,1.64,1.65v67.23s0,1.64-1.64,1.64h-13.75s-1.64,0-2.58-1.37L16.13,23.31h-.08s-.12,0-.12,1.64v43.93s0,1.64-1.64,1.64H1.63s-1.63,0-1.63-1.64V1.65S0,0,1.63,0h13.62Z" style="fill: #fff;"></path><g><path d="M493.39,53.18c-4.65,0-8.45,3.79-8.45,8.47s3.8,8.46,8.45,8.46,8.48-3.8,8.48-8.46-3.8-8.47-8.48-8.47M493.39,72.11c-5.76,0-10.46-4.69-10.46-10.47s4.71-10.47,10.46-10.47,10.49,4.69,10.49,10.47-4.71,10.47-10.49,10.47" style="fill: #fff;"></path><path d="M489.7,66.37v-9.46h4.99c1.11,0,1.94.22,2.49.65.54.45.81,1.12.81,2.03,0,.58-.14,1.06-.4,1.44-.26.38-.64.64-1.13.78.44.15.77.37.96.68.18.29.27.76.31,1.4l.05,1.11v.04c.03.56.15.9.41,1.03v.28h-2.32c-.07-.14-.13-.29-.16-.5-.04-.19-.06-.42-.07-.69l-.03-.99c-.03-.59-.16-.99-.36-1.19-.22-.21-.59-.3-1.17-.3h-2.24v3.68h-2.11ZM491.81,61.04h2.5c.52,0,.92-.1,1.16-.3.27-.21.4-.51.4-.96,0-.41-.12-.71-.37-.94-.24-.21-.6-.31-1.09-.31h-2.58v2.5Z" style="fill: #fff;"></path></g></g></g></svg>